P3
96 32
255
0 0 0
1 1 1
2 2 2
3 3 3
4 4 4
5 5 5
6 6 6
7 7 7
8 8 8
9 9 9
10 10 10
11 11 11
12 12 12
13 13 13
14 14 14
15 15 15
16 16 16
17 17 17
18 18 18
19 19 19
20 20 20
21 21 21
22 22 22
23 23 23
24 24 24
25 25 25
26 26 26
27 27 27
28 28 28
29 29 29
30 30 30
31 31 31
32 32 32
33 33 33
34 34 34
35 35 35
36 36 36
37 37 37
38 38 38
39 39 39
40 40 40
41 41 41
42 42 42
43 43 43
44 44 44
45 45 45
46 46 46
47 47 47
48 48 48
49 49 49
50 50 50
51 51 51
52 52 52
53 53 53
54 54 54
55 55 55
56 56 56
57 57 57
58 58 58
59 59 59
60 60 60
61 61 61
62 62 62
63 63 63
64 64 64
65 65 65
66 66 66
67 67 67
68 68 68
69 69 69
70 70 70
71 71 71
72 72 72
73 73 73
74 74 74
75 75 75
76 76 76
77 77 77
78 78 78
79 79 79
80 80 80
81 81 81
82 82 82
83 83 83
84 84 84
85 85 85
86 86 86
87 87 87
88 88 88
89 89 89
90 90 90
91 91 91
92 92 92
93 93 93
94 94 94
95 95 95
1 1 1
1 0 1
3 3 3
3 2 3
5 5 5
5 4 5
7 7 7
7 6 7
9 9 9
9 8 9
11 11 11
11 10 11
13 13 13
13 12 13
15 15 15
15 14 15
17 17 17
17 16 17
19 19 19
19 18 19
21 21 21
21 20 21
23 23 23
23 22 23
25 25 25
25 24 25
27 27 27
27 26 27
29 29 29
29 28 29
31 31 31
31 30 31
33 33 33
33 32 33
35 35 35
35 34 35
37 37 37
37 36 37
39 39 39
39 38 39
41 41 41
41 40 41
43 43 43
43 42 43
45 45 45
45 44 45
47 47 47
47 46 47
49 49 49
49 48 49
51 51 51
51 50 51
53 53 53
53 52 53
55 55 55
55 54 55
57 57 57
57 56 57
59 59 59
59 58 59
61 61 61
61 60 61
63 63 63
63 62 63
65 65 65
65 64 65
67 67 67
67 66 67
69 69 69
69 68 69
71 71 71
71 70 71
73 73 73
73 72 73
75 75 75
75 74 75
77 77 77
77 76 77
79 79 79
79 78 79
81 81 81
81 80 81
83 83 83
83 82 83
85 85 85
85 84 85
87 87 87
87 86 87
89 89 89
89 88 89
91 91 91
91 90 91
93 93 93
93 92 93
95 95 95
95 94 95
2 2 2
3 3 3
2 0 2
3 1 3
6 6 6
7 7 7
6 4 6
7 5 7
10 10 10
11 11 11
10 8 10
11 9 11
14 14 14
15 15 15
14 12 14
15 13 15
18 18 18
19 19 19
18 16 18
19 17 19
22 22 22
23 23 23
22 20 22
23 21 23
26 26 26
27 27 27
26 24 26
27 25 27
30 30 30
31 31 31
30 28 30
31 29 31
34 34 34
35 35 35
34 32 34
35 33 35
38 38 38
39 39 39
38 36 38
39 37 39
42 42 42
43 43 43
42 40 42
43 41 43
46 46 46
47 47 47
46 44 46
47 45 47
50 50 50
51 51 51
50 48 50
51 49 51
54 54 54
55 55 55
54 52 54
55 53 55
58 58 58
59 59 59
58 56 58
59 57 59
62 62 62
63 63 63
62 60 62
63 61 63
66 66 66
67 67 67
66 64 66
67 65 67
70 70 70
71 71 71
70 68 70
71 69 71
74 74 74
75 75 75
74 72 74
75 73 75
78 78 78
79 79 79
78 76 78
79 77 79
82 82 82
83 83 83
82 80 82
83 81 83
86 86 86
87 87 87
86 84 86
87 85 87
90 90 90
91 91 91
90 88 90
91 89 91
94 94 94
95 95 95
94 92 94
95 93 95
3 3 3
3 2 3
3 1 3
3 0 3
7 7 7
7 6 7
7 5 7
7 4 7
11 11 11
11 10 11
11 9 11
11 8 11
15 15 15
15 14 15
15 13 15
15 12 15
19 19 19
19 18 19
19 17 19
19 16 19
23 23 23
23 22 23
23 21 23
23 20 23
27 27 27
27 26 27
27 25 27
27 24 27
31 31 31
31 30 31
31 29 31
31 28 31
35 35 35
35 34 35
35 33 35
35 32 35
39 39 39
39 38 39
39 37 39
39 36 39
43 43 43
43 42 43
43 41 43
43 40 43
47 47 47
47 46 47
47 45 47
47 44 47
51 51 51
51 50 51
51 49 51
51 48 51
55 55 55
55 54 55
55 53 55
55 52 55
59 59 59
59 58 59
59 57 59
59 56 59
63 63 63
63 62 63
63 61 63
63 60 63
67 67 67
67 66 67
67 65 67
67 64 67
71 71 71
71 70 71
71 69 71
71 68 71
75 75 75
75 74 75
75 73 75
75 72 75
79 79 79
79 78 79
79 77 79
79 76 79
83 83 83
83 82 83
83 81 83
83 80 83
87 87 87
87 86 87
87 85 87
87 84 87
91 91 91
91 90 91
91 89 91
91 88 91
95 95 95
95 94 95
95 93 95
95 92 95
4 4 4
5 5 5
6 6 6
7 7 7
4 0 4
5 1 5
6 2 6
7 3 7
12 12 12
13 13 13
14 14 14
15 15 15
12 8 12
13 9 13
14 10 14
15 11 15
20 20 20
21 21 21
22 22 22
23 23 23
20 16 20
21 17 21
22 18 22
23 19 23
28 28 28
29 29 29
30 30 30
31 31 31
28 24 28
29 25 29
30 26 30
31 27 31
36 36 36
37 37 37
38 38 38
39 39 39
36 32 36
37 33 37
38 34 38
39 35 39
44 44 44
45 45 45
46 46 46
47 47 47
44 40 44
45 41 45
46 42 46
47 43 47
52 52 52
53 53 53
54 54 54
55 55 55
52 48 52
53 49 53
54 50 54
55 51 55
60 60 60
61 61 61
62 62 62
63 63 63
60 56 60
61 57 61
62 58 62
63 59 63
68 68 68
69 69 69
70 70 70
71 71 71
68 64 68
69 65 69
70 66 70
71 67 71
76 76 76
77 77 77
78 78 78
79 79 79
76 72 76
77 73 77
78 74 78
79 75 79
84 84 84
85 85 85
86 86 86
87 87 87
84 80 84
85 81 85
86 82 86
87 83 87
92 92 92
93 93 93
94 94 94
95 95 95
92 88 92
93 89 93
94 90 94
95 91 95
5 5 5
5 4 5
7 7 7
7 6 7
5 1 5
5 0 5
7 3 7
7 2 7
13 13 13
13 12 13
15 15 15
15 14 15
13 9 13
13 8 13
15 11 15
15 10 15
21 21 21
21 20 21
23 23 23
23 22 23
21 17 21
21 16 21
23 19 23
23 18 23
29 29 29
29 28 29
31 31 31
31 30 31
29 25 29
29 24 29
31 27 31
31 26 31
37 37 37
37 36 37
39 39 39
39 38 39
37 33 37
37 32 37
39 35 39
39 34 39
45 45 45
45 44 45
47 47 47
47 46 47
45 41 45
45 40 45
47 43 47
47 42 47
53 53 53
53 52 53
55 55 55
55 54 55
53 49 53
53 48 53
55 51 55
55 50 55
61 61 61
61 60 61
63 63 63
63 62 63
61 57 61
61 56 61
63 59 63
63 58 63
69 69 69
69 68 69
71 71 71
71 70 71
69 65 69
69 64 69
71 67 71
71 66 71
77 77 77
77 76 77
79 79 79
79 78 79
77 73 77
77 72 77
79 75 79
79 74 79
85 85 85
85 84 85
87 87 87
87 86 87
85 81 85
85 80 85
87 83 87
87 82 87
93 93 93
93 92 93
95 95 95
95 94 95
93 89 93
93 88 93
95 91 95
95 90 95
6 6 6
7 7 7
6 4 6
7 5 7
6 2 6
7 3 7
6 0 6
7 1 7
14 14 14
15 15 15
14 12 14
15 13 15
14 10 14
15 11 15
14 8 14
15 9 15
22 22 22
23 23 23
22 20 22
23 21 23
22 18 22
23 19 23
22 16 22
23 17 23
30 30 30
31 31 31
30 28 30
31 29 31
30 26 30
31 27 31
30 24 30
31 25 31
38 38 38
39 39 39
38 36 38
39 37 39
38 34 38
39 35 39
38 32 38
39 33 39
46 46 46
47 47 47
46 44 46
47 45 47
46 42 46
47 43 47
46 40 46
47 41 47
54 54 54
55 55 55
54 52 54
55 53 55
54 50 54
55 51 55
54 48 54
55 49 55
62 62 62
63 63 63
62 60 62
63 61 63
62 58 62
63 59 63
62 56 62
63 57 63
70 70 70
71 71 71
70 68 70
71 69 71
70 66 70
71 67 71
70 64 70
71 65 71
78 78 78
79 79 79
78 76 78
79 77 79
78 74 78
79 75 79
78 72 78
79 73 79
86 86 86
87 87 87
86 84 86
87 85 87
86 82 86
87 83 87
86 80 86
87 81 87
94 94 94
95 95 95
94 92 94
95 93 95
94 90 94
95 91 95
94 88 94
95 89 95
7 7 7
7 6 7
7 5 7
7 4 7
7 3 7
7 2 7
7 1 7
7 0 7
15 15 15
15 14 15
15 13 15
15 12 15
15 11 15
15 10 15
15 9 15
15 8 15
23 23 23
23 22 23
23 21 23
23 20 23
23 19 23
23 18 23
23 17 23
23 16 23
31 31 31
31 30 31
31 29 31
31 28 31
31 27 31
31 26 31
31 25 31
31 24 31
39 39 39
39 38 39
39 37 39
39 36 39
39 35 39
39 34 39
39 33 39
39 32 39
47 47 47
47 46 47
47 45 47
47 44 47
47 43 47
47 42 47
47 41 47
47 40 47
55 55 55
55 54 55
55 53 55
55 52 55
55 51 55
55 50 55
55 49 55
55 48 55
63 63 63
63 62 63
63 61 63
63 60 63
63 59 63
63 58 63
63 57 63
63 56 63
71 71 71
71 70 71
71 69 71
71 68 71
71 67 71
71 66 71
71 65 71
71 64 71
79 79 79
79 78 79
79 77 79
79 76 79
79 75 79
79 74 79
79 73 79
79 72 79
87 87 87
87 86 87
87 85 87
87 84 87
87 83 87
87 82 87
87 81 87
87 80 87
95 95 95
95 94 95
95 93 95
95 92 95
95 91 95
95 90 95
95 89 95
95 88 95
8 8 8
9 9 9
10 10 10
11 11 11
12 12 12
13 13 13
14 14 14
15 15 15
8 0 8
9 1 9
10 2 10
11 3 11
12 4 12
13 5 13
14 6 14
15 7 15
24 24 24
25 25 25
26 26 26
27 27 27
28 28 28
29 29 29
30 30 30
31 31 31
24 16 24
25 17 25
26 18 26
27 19 27
28 20 28
29 21 29
30 22 30
31 23 31
40 40 40
41 41 41
42 42 42
43 43 43
44 44 44
45 45 45
46 46 46
47 47 47
40 32 40
41 33 41
42 34 42
43 35 43
44 36 44
45 37 45
46 38 46
47 39 47
56 56 56
57 57 57
58 58 58
59 59 59
60 60 60
61 61 61
62 62 62
63 63 63
56 48 56
57 49 57
58 50 58
59 51 59
60 52 60
61 53 61
62 54 62
63 55 63
72 72 72
73 73 73
74 74 74
75 75 75
76 76 76
77 77 77
78 78 78
79 79 79
72 64 72
73 65 73
74 66 74
75 67 75
76 68 76
77 69 77
78 70 78
79 71 79
88 88 88
89 89 89
90 90 90
91 91 91
92 92 92
93 93 93
94 94 94
95 95 95
88 80 88
89 81 89
90 82 90
91 83 91
92 84 92
93 85 93
94 86 94
95 87 95
9 9 9
9 8 9
11 11 11
11 10 11
13 13 13
13 12 13
15 15 15
15 14 15
9 1 9
9 0 9
11 3 11
11 2 11
13 5 13
13 4 13
15 7 15
15 6 15
25 25 25
25 24 25
27 27 27
27 26 27
29 29 29
29 28 29
31 31 31
31 30 31
25 17 25
25 16 25
27 19 27
27 18 27
29 21 29
29 20 29
31 23 31
31 22 31
41 41 41
41 40 41
43 43 43
43 42 43
45 45 45
45 44 45
47 47 47
47 46 47
41 33 41
41 32 41
43 35 43
43 34 43
45 37 45
45 36 45
47 39 47
47 38 47
57 57 57
57 56 57
59 59 59
59 58 59
61 61 61
61 60 61
63 63 63
63 62 63
57 49 57
57 48 57
59 51 59
59 50 59
61 53 61
61 52 61
63 55 63
63 54 63
73 73 73
73 72 73
75 75 75
75 74 75
77 77 77
77 76 77
79 79 79
79 78 79
73 65 73
73 64 73
75 67 75
75 66 75
77 69 77
77 68 77
79 71 79
79 70 79
89 89 89
89 88 89
91 91 91
91 90 91
93 93 93
93 92 93
95 95 95
95 94 95
89 81 89
89 80 89
91 83 91
91 82 91
93 85 93
93 84 93
95 87 95
95 86 95
10 10 10
11 11 11
10 8 10
11 9 11
14 14 14
15 15 15
14 12 14
15 13 15
10 2 10
11 3 11
10 0 10
11 1 11
14 6 14
15 7 15
14 4 14
15 5 15
26 26 26
27 27 27
26 24 26
27 25 27
30 30 30
31 31 31
30 28 30
31 29 31
26 18 26
27 19 27
26 16 26
27 17 27
30 22 30
31 23 31
30 20 30
31 21 31
42 42 42
43 43 43
42 40 42
43 41 43
46 46 46
47 47 47
46 44 46
47 45 47
42 34 42
43 35 43
42 32 42
43 33 43
46 38 46
47 39 47
46 36 46
47 37 47
58 58 58
59 59 59
58 56 58
59 57 59
62 62 62
63 63 63
62 60 62
63 61 63
58 50 58
59 51 59
58 48 58
59 49 59
62 54 62
63 55 63
62 52 62
63 53 63
74 74 74
75 75 75
74 72 74
75 73 75
78 78 78
79 79 79
78 76 78
79 77 79
74 66 74
75 67 75
74 64 74
75 65 75
78 70 78
79 71 79
78 68 78
79 69 79
90 90 90
91 91 91
90 88 90
91 89 91
94 94 94
95 95 95
94 92 94
95 93 95
90 82 90
91 83 91
90 80 90
91 81 91
94 86 94
95 87 95
94 84 94
95 85 95
11 11 11
11 10 11
11 9 11
11 8 11
15 15 15
15 14 15
15 13 15
15 12 15
11 3 11
11 2 11
11 1 11
11 0 11
15 7 15
15 6 15
15 5 15
15 4 15
27 27 27
27 26 27
27 25 27
27 24 27
31 31 31
31 30 31
31 29 31
31 28 31
27 19 27
27 18 27
27 17 27
27 16 27
31 23 31
31 22 31
31 21 31
31 20 31
43 43 43
43 42 43
43 41 43
43 40 43
47 47 47
47 46 47
47 45 47
47 44 47
43 35 43
43 34 43
43 33 43
43 32 43
47 39 47
47 38 47
47 37 47
47 36 47
59 59 59
59 58 59
59 57 59
59 56 59
63 63 63
63 62 63
63 61 63
63 60 63
59 51 59
59 50 59
59 49 59
59 48 59
63 55 63
63 54 63
63 53 63
63 52 63
75 75 75
75 74 75
75 73 75
75 72 75
79 79 79
79 78 79
79 77 79
79 76 79
75 67 75
75 66 75
75 65 75
75 64 75
79 71 79
79 70 79
79 69 79
79 68 79
91 91 91
91 90 91
91 89 91
91 88 91
95 95 95
95 94 95
95 93 95
95 92 95
91 83 91
91 82 91
91 81 91
91 80 91
95 87 95
95 86 95
95 85 95
95 84 95
12 12 12
13 13 13
14 14 14
15 15 15
12 8 12
13 9 13
14 10 14
15 11 15
12 4 12
13 5 13
14 6 14
15 7 15
12 0 12
13 1 13
14 2 14
15 3 15
28 28 28
29 29 29
30 30 30
31 31 31
28 24 28
29 25 29
30 26 30
31 27 31
28 20 28
29 21 29
30 22 30
31 23 31
28 16 28
29 17 29
30 18 30
31 19 31
44 44 44
45 45 45
46 46 46
47 47 47
44 40 44
45 41 45
46 42 46
47 43 47
44 36 44
45 37 45
46 38 46
47 39 47
44 32 44
45 33 45
46 34 46
47 35 47
60 60 60
61 61 61
62 62 62
63 63 63
60 56 60
61 57 61
62 58 62
63 59 63
60 52 60
61 53 61
62 54 62
63 55 63
60 48 60
61 49 61
62 50 62
63 51 63
76 76 76
77 77 77
78 78 78
79 79 79
76 72 76
77 73 77
78 74 78
79 75 79
76 68 76
77 69 77
78 70 78
79 71 79
76 64 76
77 65 77
78 66 78
79 67 79
92 92 92
93 93 93
94 94 94
95 95 95
92 88 92
93 89 93
94 90 94
95 91 95
92 84 92
93 85 93
94 86 94
95 87 95
92 80 92
93 81 93
94 82 94
95 83 95
13 13 13
13 12 13
15 15 15
15 14 15
13 9 13
13 8 13
15 11 15
15 10 15
13 5 13
13 4 13
15 7 15
15 6 15
13 1 13
13 0 13
15 3 15
15 2 15
29 29 29
29 28 29
31 31 31
31 30 31
29 25 29
29 24 29
31 27 31
31 26 31
29 21 29
29 20 29
31 23 31
31 22 31
29 17 29
29 16 29
31 19 31
31 18 31
45 45 45
45 44 45
47 47 47
47 46 47
45 41 45
45 40 45
47 43 47
47 42 47
45 37 45
45 36 45
47 39 47
47 38 47
45 33 45
45 32 45
47 35 47
47 34 47
61 61 61
61 60 61
63 63 63
63 62 63
61 57 61
61 56 61
63 59 63
63 58 63
61 53 61
61 52 61
63 55 63
63 54 63
61 49 61
61 48 61
63 51 63
63 50 63
77 77 77
77 76 77
79 79 79
79 78 79
77 73 77
77 72 77
79 75 79
79 74 79
77 69 77
77 68 77
79 71 79
79 70 79
77 65 77
77 64 77
79 67 79
79 66 79
93 93 93
93 92 93
95 95 95
95 94 95
93 89 93
93 88 93
95 91 95
95 90 95
93 85 93
93 84 93
95 87 95
95 86 95
93 81 93
93 80 93
95 83 95
95 82 95
14 14 14
15 15 15
14 12 14
15 13 15
14 10 14
15 11 15
14 8 14
15 9 15
14 6 14
15 7 15
14 4 14
15 5 15
14 2 14
15 3 15
14 0 14
15 1 15
30 30 30
31 31 31
30 28 30
31 29 31
30 26 30
31 27 31
30 24 30
31 25 31
30 22 30
31 23 31
30 20 30
31 21 31
30 18 30
31 19 31
30 16 30
31 17 31
46 46 46
47 47 47
46 44 46
47 45 47
46 42 46
47 43 47
46 40 46
47 41 47
46 38 46
47 39 47
46 36 46
47 37 47
46 34 46
47 35 47
46 32 46
47 33 47
62 62 62
63 63 63
62 60 62
63 61 63
62 58 62
63 59 63
62 56 62
63 57 63
62 54 62
63 55 63
62 52 62
63 53 63
62 50 62
63 51 63
62 48 62
63 49 63
78 78 78
79 79 79
78 76 78
79 77 79
78 74 78
79 75 79
78 72 78
79 73 79
78 70 78
79 71 79
78 68 78
79 69 79
78 66 78
79 67 79
78 64 78
79 65 79
94 94 94
95 95 95
94 92 94
95 93 95
94 90 94
95 91 95
94 88 94
95 89 95
94 86 94
95 87 95
94 84 94
95 85 95
94 82 94
95 83 95
94 80 94
95 81 95
15 15 15
15 14 15
15 13 15
15 12 15
15 11 15
15 10 15
15 9 15
15 8 15
15 7 15
15 6 15
15 5 15
15 4 15
15 3 15
15 2 15
15 1 15
15 0 15
31 31 31
31 30 31
31 29 31
31 28 31
31 27 31
31 26 31
31 25 31
31 24 31
31 23 31
31 22 31
31 21 31
31 20 31
31 19 31
31 18 31
31 17 31
31 16 31
47 47 47
47 46 47
47 45 47
47 44 47
47 43 47
47 42 47
47 41 47
47 40 47
47 39 47
47 38 47
47 37 47
47 36 47
47 35 47
47 34 47
47 33 47
47 32 47
63 63 63
63 62 63
63 61 63
63 60 63
63 59 63
63 58 63
63 57 63
63 56 63
63 55 63
63 54 63
63 53 63
63 52 63
63 51 63
63 50 63
63 49 63
63 48 63
79 79 79
79 78 79
79 77 79
79 76 79
79 75 79
79 74 79
79 73 79
79 72 79
79 71 79
79 70 79
79 69 79
79 68 79
79 67 79
79 66 79
79 65 79
79 64 79
95 95 95
95 94 95
95 93 95
95 92 95
95 91 95
95 90 95
95 89 95
95 88 95
95 87 95
95 86 95
95 85 95
95 84 95
95 83 95
95 82 95
95 81 95
95 80 95
16 16 16
17 17 17
18 18 18
19 19 19
20 20 20
21 21 21
22 22 22
23 23 23
24 24 24
25 25 25
26 26 26
27 27 27
28 28 28
29 29 29
30 30 30
31 31 31
16 0 16
17 1 17
18 2 18
19 3 19
20 4 20
21 5 21
22 6 22
23 7 23
24 8 24
25 9 25
26 10 26
27 11 27
28 12 28
29 13 29
30 14 30
31 15 31
48 48 48
49 49 49
50 50 50
51 51 51
52 52 52
53 53 53
54 54 54
55 55 55
56 56 56
57 57 57
58 58 58
59 59 59
60 60 60
61 61 61
62 62 62
63 63 63
48 32 48
49 33 49
50 34 50
51 35 51
52 36 52
53 37 53
54 38 54
55 39 55
56 40 56
57 41 57
58 42 58
59 43 59
60 44 60
61 45 61
62 46 62
63 47 63
80 80 80
81 81 81
82 82 82
83 83 83
84 84 84
85 85 85
86 86 86
87 87 87
88 88 88
89 89 89
90 90 90
91 91 91
92 92 92
93 93 93
94 94 94
95 95 95
80 64 80
81 65 81
82 66 82
83 67 83
84 68 84
85 69 85
86 70 86
87 71 87
88 72 88
89 73 89
90 74 90
91 75 91
92 76 92
93 77 93
94 78 94
95 79 95
17 17 17
17 16 17
19 19 19
19 18 19
21 21 21
21 20 21
23 23 23
23 22 23
25 25 25
25 24 25
27 27 27
27 26 27
29 29 29
29 28 29
31 31 31
31 30 31
17 1 17
17 0 17
19 3 19
19 2 19
21 5 21
21 4 21
23 7 23
23 6 23
25 9 25
25 8 25
27 11 27
27 10 27
29 13 29
29 12 29
31 15 31
31 14 31
49 49 49
49 48 49
51 51 51
51 50 51
53 53 53
53 52 53
55 55 55
55 54 55
57 57 57
57 56 57
59 59 59
59 58 59
61 61 61
61 60 61
63 63 63
63 62 63
49 33 49
49 32 49
51 35 51
51 34 51
53 37 53
53 36 53
55 39 55
55 38 55
57 41 57
57 40 57
59 43 59
59 42 59
61 45 61
61 44 61
63 47 63
63 46 63
81 81 81
81 80 81
83 83 83
83 82 83
85 85 85
85 84 85
87 87 87
87 86 87
89 89 89
89 88 89
91 91 91
91 90 91
93 93 93
93 92 93
95 95 95
95 94 95
81 65 81
81 64 81
83 67 83
83 66 83
85 69 85
85 68 85
87 71 87
87 70 87
89 73 89
89 72 89
91 75 91
91 74 91
93 77 93
93 76 93
95 79 95
95 78 95
18 18 18
19 19 19
18 16 18
19 17 19
22 22 22
23 23 23
22 20 22
23 21 23
26 26 26
27 27 27
26 24 26
27 25 27
30 30 30
31 31 31
30 28 30
31 29 31
18 2 18
19 3 19
18 0 18
19 1 19
22 6 22
23 7 23
22 4 22
23 5 23
26 10 26
27 11 27
26 8 26
27 9 27
30 14 30
31 15 31
30 12 30
31 13 31
50 50 50
51 51 51
50 48 50
51 49 51
54 54 54
55 55 55
54 52 54
55 53 55
58 58 58
59 59 59
58 56 58
59 57 59
62 62 62
63 63 63
62 60 62
63 61 63
50 34 50
51 35 51
50 32 50
51 33 51
54 38 54
55 39 55
54 36 54
55 37 55
58 42 58
59 43 59
58 40 58
59 41 59
62 46 62
63 47 63
62 44 62
63 45 63
82 82 82
83 83 83
82 80 82
83 81 83
86 86 86
87 87 87
86 84 86
87 85 87
90 90 90
91 91 91
90 88 90
91 89 91
94 94 94
95 95 95
94 92 94
95 93 95
82 66 82
83 67 83
82 64 82
83 65 83
86 70 86
87 71 87
86 68 86
87 69 87
90 74 90
91 75 91
90 72 90
91 73 91
94 78 94
95 79 95
94 76 94
95 77 95
19 19 19
19 18 19
19 17 19
19 16 19
23 23 23
23 22 23
23 21 23
23 20 23
27 27 27
27 26 27
27 25 27
27 24 27
31 31 31
31 30 31
31 29 31
31 28 31
19 3 19
19 2 19
19 1 19
19 0 19
23 7 23
23 6 23
23 5 23
23 4 23
27 11 27
27 10 27
27 9 27
27 8 27
31 15 31
31 14 31
31 13 31
31 12 31
51 51 51
51 50 51
51 49 51
51 48 51
55 55 55
55 54 55
55 53 55
55 52 55
59 59 59
59 58 59
59 57 59
59 56 59
63 63 63
63 62 63
63 61 63
63 60 63
51 35 51
51 34 51
51 33 51
51 32 51
55 39 55
55 38 55
55 37 55
55 36 55
59 43 59
59 42 59
59 41 59
59 40 59
63 47 63
63 46 63
63 45 63
63 44 63
83 83 83
83 82 83
83 81 83
83 80 83
87 87 87
87 86 87
87 85 87
87 84 87
91 91 91
91 90 91
91 89 91
91 88 91
95 95 95
95 94 95
95 93 95
95 92 95
83 67 83
83 66 83
83 65 83
83 64 83
87 71 87
87 70 87
87 69 87
87 68 87
91 75 91
91 74 91
91 73 91
91 72 91
95 79 95
95 78 95
95 77 95
95 76 95
20 20 20
21 21 21
22 22 22
23 23 23
20 16 20
21 17 21
22 18 22
23 19 23
28 28 28
29 29 29
30 30 30
31 31 31
28 24 28
29 25 29
30 26 30
31 27 31
20 4 20
21 5 21
22 6 22
23 7 23
20 0 20
21 1 21
22 2 22
23 3 23
28 12 28
29 13 29
30 14 30
31 15 31
28 8 28
29 9 29
30 10 30
31 11 31
52 52 52
53 53 53
54 54 54
55 55 55
52 48 52
53 49 53
54 50 54
55 51 55
60 60 60
61 61 61
62 62 62
63 63 63
60 56 60
61 57 61
62 58 62
63 59 63
52 36 52
53 37 53
54 38 54
55 39 55
52 32 52
53 33 53
54 34 54
55 35 55
60 44 60
61 45 61
62 46 62
63 47 63
60 40 60
61 41 61
62 42 62
63 43 63
84 84 84
85 85 85
86 86 86
87 87 87
84 80 84
85 81 85
86 82 86
87 83 87
92 92 92
93 93 93
94 94 94
95 95 95
92 88 92
93 89 93
94 90 94
95 91 95
84 68 84
85 69 85
86 70 86
87 71 87
84 64 84
85 65 85
86 66 86
87 67 87
92 76 92
93 77 93
94 78 94
95 79 95
92 72 92
93 73 93
94 74 94
95 75 95
21 21 21
21 20 21
23 23 23
23 22 23
21 17 21
21 16 21
23 19 23
23 18 23
29 29 29
29 28 29
31 31 31
31 30 31
29 25 29
29 24 29
31 27 31
31 26 31
21 5 21
21 4 21
23 7 23
23 6 23
21 1 21
21 0 21
23 3 23
23 2 23
29 13 29
29 12 29
31 15 31
31 14 31
29 9 29
29 8 29
31 11 31
31 10 31
53 53 53
53 52 53
55 55 55
55 54 55
53 49 53
53 48 53
55 51 55
55 50 55
61 61 61
61 60 61
63 63 63
63 62 63
61 57 61
61 56 61
63 59 63
63 58 63
53 37 53
53 36 53
55 39 55
55 38 55
53 33 53
53 32 53
55 35 55
55 34 55
61 45 61
61 44 61
63 47 63
63 46 63
61 41 61
61 40 61
63 43 63
63 42 63
85 85 85
85 84 85
87 87 87
87 86 87
85 81 85
85 80 85
87 83 87
87 82 87
93 93 93
93 92 93
95 95 95
95 94 95
93 89 93
93 88 93
95 91 95
95 90 95
85 69 85
85 68 85
87 71 87
87 70 87
85 65 85
85 64 85
87 67 87
87 66 87
93 77 93
93 76 93
95 79 95
95 78 95
93 73 93
93 72 93
95 75 95
95 74 95
22 22 22
23 23 23
22 20 22
23 21 23
22 18 22
23 19 23
22 16 22
23 17 23
30 30 30
31 31 31
30 28 30
31 29 31
30 26 30
31 27 31
30 24 30
31 25 31
22 6 22
23 7 23
22 4 22
23 5 23
22 2 22
23 3 23
22 0 22
23 1 23
30 14 30
31 15 31
30 12 30
31 13 31
30 10 30
31 11 31
30 8 30
31 9 31
54 54 54
55 55 55
54 52 54
55 53 55
54 50 54
55 51 55
54 48 54
55 49 55
62 62 62
63 63 63
62 60 62
63 61 63
62 58 62
63 59 63
62 56 62
63 57 63
54 38 54
55 39 55
54 36 54
55 37 55
54 34 54
55 35 55
54 32 54
55 33 55
62 46 62
63 47 63
62 44 62
63 45 63
62 42 62
63 43 63
62 40 62
63 41 63
86 86 86
87 87 87
86 84 86
87 85 87
86 82 86
87 83 87
86 80 86
87 81 87
94 94 94
95 95 95
94 92 94
95 93 95
94 90 94
95 91 95
94 88 94
95 89 95
86 70 86
87 71 87
86 68 86
87 69 87
86 66 86
87 67 87
86 64 86
87 65 87
94 78 94
95 79 95
94 76 94
95 77 95
94 74 94
95 75 95
94 72 94
95 73 95
23 23 23
23 22 23
23 21 23
23 20 23
23 19 23
23 18 23
23 17 23
23 16 23
31 31 31
31 30 31
31 29 31
31 28 31
31 27 31
31 26 31
31 25 31
31 24 31
23 7 23
23 6 23
23 5 23
23 4 23
23 3 23
23 2 23
23 1 23
23 0 23
31 15 31
31 14 31
31 13 31
31 12 31
31 11 31
31 10 31
31 9 31
31 8 31
55 55 55
55 54 55
55 53 55
55 52 55
55 51 55
55 50 55
55 49 55
55 48 55
63 63 63
63 62 63
63 61 63
63 60 63
63 59 63
63 58 63
63 57 63
63 56 63
55 39 55
55 38 55
55 37 55
55 36 55
55 35 55
55 34 55
55 33 55
55 32 55
63 47 63
63 46 63
63 45 63
63 44 63
63 43 63
63 42 63
63 41 63
63 40 63
87 87 87
87 86 87
87 85 87
87 84 87
87 83 87
87 82 87
87 81 87
87 80 87
95 95 95
95 94 95
95 93 95
95 92 95
95 91 95
95 90 95
95 89 95
95 88 95
87 71 87
87 70 87
87 69 87
87 68 87
87 67 87
87 66 87
87 65 87
87 64 87
95 79 95
95 78 95
95 77 95
95 76 95
95 75 95
95 74 95
95 73 95
95 72 95
24 24 24
25 25 25
26 26 26
27 27 27
28 28 28
29 29 29
30 30 30
31 31 31
24 16 24
25 17 25
26 18 26
27 19 27
28 20 28
29 21 29
30 22 30
31 23 31
24 8 24
25 9 25
26 10 26
27 11 27
28 12 28
29 13 29
30 14 30
31 15 31
24 0 24
25 1 25
26 2 26
27 3 27
28 4 28
29 5 29
30 6 30
31 7 31
56 56 56
57 57 57
58 58 58
59 59 59
60 60 60
61 61 61
62 62 62
63 63 63
56 48 56
57 49 57
58 50 58
59 51 59
60 52 60
61 53 61
62 54 62
63 55 63
56 40 56
57 41 57
58 42 58
59 43 59
60 44 60
61 45 61
62 46 62
63 47 63
56 32 56
57 33 57
58 34 58
59 35 59
60 36 60
61 37 61
62 38 62
63 39 63
88 88 88
89 89 89
90 90 90
91 91 91
92 92 92
93 93 93
94 94 94
95 95 95
88 80 88
89 81 89
90 82 90
91 83 91
92 84 92
93 85 93
94 86 94
95 87 95
88 72 88
89 73 89
90 74 90
91 75 91
92 76 92
93 77 93
94 78 94
95 79 95
88 64 88
89 65 89
90 66 90
91 67 91
92 68 92
93 69 93
94 70 94
95 71 95
25 25 25
25 24 25
27 27 27
27 26 27
29 29 29
29 28 29
31 31 31
31 30 31
25 17 25
25 16 25
27 19 27
27 18 27
29 21 29
29 20 29
31 23 31
31 22 31
25 9 25
25 8 25
27 11 27
27 10 27
29 13 29
29 12 29
31 15 31
31 14 31
25 1 25
25 0 25
27 3 27
27 2 27
29 5 29
29 4 29
31 7 31
31 6 31
57 57 57
57 56 57
59 59 59
59 58 59
61 61 61
61 60 61
63 63 63
63 62 63
57 49 57
57 48 57
59 51 59
59 50 59
61 53 61
61 52 61
63 55 63
63 54 63
57 41 57
57 40 57
59 43 59
59 42 59
61 45 61
61 44 61
63 47 63
63 46 63
57 33 57
57 32 57
59 35 59
59 34 59
61 37 61
61 36 61
63 39 63
63 38 63
89 89 89
89 88 89
91 91 91
91 90 91
93 93 93
93 92 93
95 95 95
95 94 95
89 81 89
89 80 89
91 83 91
91 82 91
93 85 93
93 84 93
95 87 95
95 86 95
89 73 89
89 72 89
91 75 91
91 74 91
93 77 93
93 76 93
95 79 95
95 78 95
89 65 89
89 64 89
91 67 91
91 66 91
93 69 93
93 68 93
95 71 95
95 70 95
26 26 26
27 27 27
26 24 26
27 25 27
30 30 30
31 31 31
30 28 30
31 29 31
26 18 26
27 19 27
26 16 26
27 17 27
30 22 30
31 23 31
30 20 30
31 21 31
26 10 26
27 11 27
26 8 26
27 9 27
30 14 30
31 15 31
30 12 30
31 13 31
26 2 26
27 3 27
26 0 26
27 1 27
30 6 30
31 7 31
30 4 30
31 5 31
58 58 58
59 59 59
58 56 58
59 57 59
62 62 62
63 63 63
62 60 62
63 61 63
58 50 58
59 51 59
58 48 58
59 49 59
62 54 62
63 55 63
62 52 62
63 53 63
58 42 58
59 43 59
58 40 58
59 41 59
62 46 62
63 47 63
62 44 62
63 45 63
58 34 58
59 35 59
58 32 58
59 33 59
62 38 62
63 39 63
62 36 62
63 37 63
90 90 90
91 91 91
90 88 90
91 89 91
94 94 94
95 95 95
94 92 94
95 93 95
90 82 90
91 83 91
90 80 90
91 81 91
94 86 94
95 87 95
94 84 94
95 85 95
90 74 90
91 75 91
90 72 90
91 73 91
94 78 94
95 79 95
94 76 94
95 77 95
90 66 90
91 67 91
90 64 90
91 65 91
94 70 94
95 71 95
94 68 94
95 69 95
27 27 27
27 26 27
27 25 27
27 24 27
31 31 31
31 30 31
31 29 31
31 28 31
27 19 27
27 18 27
27 17 27
27 16 27
31 23 31
31 22 31
31 21 31
31 20 31
27 11 27
27 10 27
27 9 27
27 8 27
31 15 31
31 14 31
31 13 31
31 12 31
27 3 27
27 2 27
27 1 27
27 0 27
31 7 31
31 6 31
31 5 31
31 4 31
59 59 59
59 58 59
59 57 59
59 56 59
63 63 63
63 62 63
63 61 63
63 60 63
59 51 59
59 50 59
59 49 59
59 48 59
63 55 63
63 54 63
63 53 63
63 52 63
59 43 59
59 42 59
59 41 59
59 40 59
63 47 63
63 46 63
63 45 63
63 44 63
59 35 59
59 34 59
59 33 59
59 32 59
63 39 63
63 38 63
63 37 63
63 36 63
91 91 91
91 90 91
91 89 91
91 88 91
95 95 95
95 94 95
95 93 95
95 92 95
91 83 91
91 82 91
91 81 91
91 80 91
95 87 95
95 86 95
95 85 95
95 84 95
91 75 91
91 74 91
91 73 91
91 72 91
95 79 95
95 78 95
95 77 95
95 76 95
91 67 91
91 66 91
91 65 91
91 64 91
95 71 95
95 70 95
95 69 95
95 68 95
28 28 28
29 29 29
30 30 30
31 31 31
28 24 28
29 25 29
30 26 30
31 27 31
28 20 28
29 21 29
30 22 30
31 23 31
28 16 28
29 17 29
30 18 30
31 19 31
28 12 28
29 13 29
30 14 30
31 15 31
28 8 28
29 9 29
30 10 30
31 11 31
28 4 28
29 5 29
30 6 30
31 7 31
28 0 28
29 1 29
30 2 30
31 3 31
60 60 60
61 61 61
62 62 62
63 63 63
60 56 60
61 57 61
62 58 62
63 59 63
60 52 60
61 53 61
62 54 62
63 55 63
60 48 60
61 49 61
62 50 62
63 51 63
60 44 60
61 45 61
62 46 62
63 47 63
60 40 60
61 41 61
62 42 62
63 43 63
60 36 60
61 37 61
62 38 62
63 39 63
60 32 60
61 33 61
62 34 62
63 35 63
92 92 92
93 93 93
94 94 94
95 95 95
92 88 92
93 89 93
94 90 94
95 91 95
92 84 92
93 85 93
94 86 94
95 87 95
92 80 92
93 81 93
94 82 94
95 83 95
92 76 92
93 77 93
94 78 94
95 79 95
92 72 92
93 73 93
94 74 94
95 75 95
92 68 92
93 69 93
94 70 94
95 71 95
92 64 92
93 65 93
94 66 94
95 67 95
29 29 29
29 28 29
31 31 31
31 30 31
29 25 29
29 24 29
31 27 31
31 26 31
29 21 29
29 20 29
31 23 31
31 22 31
29 17 29
29 16 29
31 19 31
31 18 31
29 13 29
29 12 29
31 15 31
31 14 31
29 9 29
29 8 29
31 11 31
31 10 31
29 5 29
29 4 29
31 7 31
31 6 31
29 1 29
29 0 29
31 3 31
31 2 31
61 61 61
61 60 61
63 63 63
63 62 63
61 57 61
61 56 61
63 59 63
63 58 63
61 53 61
61 52 61
63 55 63
63 54 63
61 49 61
61 48 61
63 51 63
63 50 63
61 45 61
61 44 61
63 47 63
63 46 63
61 41 61
61 40 61
63 43 63
63 42 63
61 37 61
61 36 61
63 39 63
63 38 63
61 33 61
61 32 61
63 35 63
63 34 63
93 93 93
93 92 93
95 95 95
95 94 95
93 89 93
93 88 93
95 91 95
95 90 95
93 85 93
93 84 93
95 87 95
95 86 95
93 81 93
93 80 93
95 83 95
95 82 95
93 77 93
93 76 93
95 79 95
95 78 95
93 73 93
93 72 93
95 75 95
95 74 95
93 69 93
93 68 93
95 71 95
95 70 95
93 65 93
93 64 93
95 67 95
95 66 95
30 30 30
31 31 31
30 28 30
31 29 31
30 26 30
31 27 31
30 24 30
31 25 31
30 22 30
31 23 31
30 20 30
31 21 31
30 18 30
31 19 31
30 16 30
31 17 31
30 14 30
31 15 31
30 12 30
31 13 31
30 10 30
31 11 31
30 8 30
31 9 31
30 6 30
31 7 31
30 4 30
31 5 31
30 2 30
31 3 31
30 0 30
31 1 31
62 62 62
63 63 63
62 60 62
63 61 63
62 58 62
63 59 63
62 56 62
63 57 63
62 54 62
63 55 63
62 52 62
63 53 63
62 50 62
63 51 63
62 48 62
63 49 63
62 46 62
63 47 63
62 44 62
63 45 63
62 42 62
63 43 63
62 40 62
63 41 63
62 38 62
63 39 63
62 36 62
63 37 63
62 34 62
63 35 63
62 32 62
63 33 63
94 94 94
95 95 95
94 92 94
95 93 95
94 90 94
95 91 95
94 88 94
95 89 95
94 86 94
95 87 95
94 84 94
95 85 95
94 82 94
95 83 95
94 80 94
95 81 95
94 78 94
95 79 95
94 76 94
95 77 95
94 74 94
95 75 95
94 72 94
95 73 95
94 70 94
95 71 95
94 68 94
95 69 95
94 66 94
95 67 95
94 64 94
95 65 95
31 31 31
31 30 31
31 29 31
31 28 31
31 27 31
31 26 31
31 25 31
31 24 31
31 23 31
31 22 31
31 21 31
31 20 31
31 19 31
31 18 31
31 17 31
31 16 31
31 15 31
31 14 31
31 13 31
31 12 31
31 11 31
31 10 31
31 9 31
31 8 31
31 7 31
31 6 31
31 5 31
31 4 31
31 3 31
31 2 31
31 1 31
31 0 31
63 63 63
63 62 63
63 61 63
63 60 63
63 59 63
63 58 63
63 57 63
63 56 63
63 55 63
63 54 63
63 53 63
63 52 63
63 51 63
63 50 63
63 49 63
63 48 63
63 47 63
63 46 63
63 45 63
63 44 63
63 43 63
63 42 63
63 41 63
63 40 63
63 39 63
63 38 63
63 37 63
63 36 63
63 35 63
63 34 63
63 33 63
63 32 63
95 95 95
95 94 95
95 93 95
95 92 95
95 91 95
95 90 95
95 89 95
95 88 95
95 87 95
95 86 95
95 85 95
95 84 95
95 83 95
95 82 95
95 81 95
95 80 95
95 79 95
95 78 95
95 77 95
95 76 95
95 75 95
95 74 95
95 73 95
95 72 95
95 71 95
95 70 95
95 69 95
95 68 95
95 67 95
95 66 95
95 65 95
95 64 95
